%TF.GenerationSoftware,KiCad,Pcbnew,8.0.2-8.0.2-0~ubuntu22.04.1*%
%TF.CreationDate,2024-05-24T16:28:22+03:30*%
%TF.ProjectId,test,74657374-2e6b-4696-9361-645f70636258,rev?*%
%TF.SameCoordinates,Original*%
%TF.FileFunction,Soldermask,Bot*%
%TF.FilePolarity,Negative*%
%FSLAX46Y46*%
G04 Gerber Fmt 4.6, Leading zero omitted, Abs format (unit mm)*
G04 Created by KiCad (PCBNEW 8.0.2-8.0.2-0~ubuntu22.04.1) date 2024-05-24 16:28:22*
%MOMM*%
%LPD*%
G01*
G04 APERTURE LIST*
G04 Aperture macros list*
%AMRoundRect*
0 Rectangle with rounded corners*
0 $1 Rounding radius*
0 $2 $3 $4 $5 $6 $7 $8 $9 X,Y pos of 4 corners*
0 Add a 4 corners polygon primitive as box body*
4,1,4,$2,$3,$4,$5,$6,$7,$8,$9,$2,$3,0*
0 Add four circle primitives for the rounded corners*
1,1,$1+$1,$2,$3*
1,1,$1+$1,$4,$5*
1,1,$1+$1,$6,$7*
1,1,$1+$1,$8,$9*
0 Add four rect primitives between the rounded corners*
20,1,$1+$1,$2,$3,$4,$5,0*
20,1,$1+$1,$4,$5,$6,$7,0*
20,1,$1+$1,$6,$7,$8,$9,0*
20,1,$1+$1,$8,$9,$2,$3,0*%
G04 Aperture macros list end*
%ADD10C,3.000000*%
%ADD11C,2.500000*%
%ADD12C,2.000000*%
%ADD13R,2.000000X2.000000*%
%ADD14RoundRect,0.250000X0.845000X-0.620000X0.845000X0.620000X-0.845000X0.620000X-0.845000X-0.620000X0*%
%ADD15O,2.190000X1.740000*%
%ADD16R,1.700000X2.000000*%
%ADD17O,1.700000X2.000000*%
%ADD18RoundRect,0.250000X0.620000X0.845000X-0.620000X0.845000X-0.620000X-0.845000X0.620000X-0.845000X0*%
%ADD19O,1.740000X2.190000*%
%ADD20RoundRect,0.250000X-0.845000X0.620000X-0.845000X-0.620000X0.845000X-0.620000X0.845000X0.620000X0*%
%ADD21C,1.400000*%
%ADD22C,2.600000*%
%ADD23R,2.600000X2.600000*%
%ADD24C,2.400000*%
%ADD25O,2.400000X2.400000*%
%ADD26C,1.000000*%
%ADD27R,1.200000X1.200000*%
%ADD28C,1.200000*%
%ADD29R,1.600000X1.600000*%
%ADD30O,1.600000X1.600000*%
%ADD31R,1.700000X1.700000*%
%ADD32O,1.700000X1.700000*%
%ADD33RoundRect,0.250000X-0.620000X-0.845000X0.620000X-0.845000X0.620000X0.845000X-0.620000X0.845000X0*%
%ADD34R,1.350000X1.350000*%
%ADD35O,1.350000X1.350000*%
%ADD36RoundRect,0.375000X-0.375000X0.625000X-0.375000X-0.625000X0.375000X-0.625000X0.375000X0.625000X0*%
%ADD37RoundRect,0.500000X-1.400000X0.500000X-1.400000X-0.500000X1.400000X-0.500000X1.400000X0.500000X0*%
%ADD38RoundRect,0.250000X-0.450000X0.350000X-0.450000X-0.350000X0.450000X-0.350000X0.450000X0.350000X0*%
%ADD39RoundRect,0.150000X-0.587500X-0.150000X0.587500X-0.150000X0.587500X0.150000X-0.587500X0.150000X0*%
%ADD40RoundRect,0.250000X0.450000X-0.350000X0.450000X0.350000X-0.450000X0.350000X-0.450000X-0.350000X0*%
%ADD41R,1.500000X1.300000*%
%ADD42RoundRect,0.250000X-0.400000X-0.625000X0.400000X-0.625000X0.400000X0.625000X-0.400000X0.625000X0*%
%ADD43RoundRect,0.250000X0.350000X0.450000X-0.350000X0.450000X-0.350000X-0.450000X0.350000X-0.450000X0*%
%ADD44RoundRect,0.225000X-0.375000X0.225000X-0.375000X-0.225000X0.375000X-0.225000X0.375000X0.225000X0*%
%ADD45RoundRect,0.250000X0.337500X0.475000X-0.337500X0.475000X-0.337500X-0.475000X0.337500X-0.475000X0*%
%ADD46RoundRect,0.150000X0.150000X-0.587500X0.150000X0.587500X-0.150000X0.587500X-0.150000X-0.587500X0*%
%ADD47RoundRect,0.250000X0.475000X-0.337500X0.475000X0.337500X-0.475000X0.337500X-0.475000X-0.337500X0*%
%ADD48RoundRect,0.150000X-0.825000X-0.150000X0.825000X-0.150000X0.825000X0.150000X-0.825000X0.150000X0*%
%ADD49RoundRect,0.250000X-0.625000X0.400000X-0.625000X-0.400000X0.625000X-0.400000X0.625000X0.400000X0*%
%ADD50RoundRect,0.250000X2.050000X0.300000X-2.050000X0.300000X-2.050000X-0.300000X2.050000X-0.300000X0*%
%ADD51RoundRect,0.250002X4.449998X5.149998X-4.449998X5.149998X-4.449998X-5.149998X4.449998X-5.149998X0*%
%ADD52RoundRect,0.250000X-0.350000X-0.450000X0.350000X-0.450000X0.350000X0.450000X-0.350000X0.450000X0*%
%ADD53RoundRect,0.225000X0.225000X0.375000X-0.225000X0.375000X-0.225000X-0.375000X0.225000X-0.375000X0*%
%ADD54RoundRect,0.250000X0.400000X0.625000X-0.400000X0.625000X-0.400000X-0.625000X0.400000X-0.625000X0*%
%ADD55RoundRect,0.250000X-0.475000X0.337500X-0.475000X-0.337500X0.475000X-0.337500X0.475000X0.337500X0*%
%ADD56RoundRect,0.250000X-0.337500X-0.475000X0.337500X-0.475000X0.337500X0.475000X-0.337500X0.475000X0*%
%ADD57RoundRect,0.225000X-0.225000X-0.375000X0.225000X-0.375000X0.225000X0.375000X-0.225000X0.375000X0*%
%ADD58RoundRect,0.150000X-0.150000X0.825000X-0.150000X-0.825000X0.150000X-0.825000X0.150000X0.825000X0*%
%ADD59RoundRect,0.150000X0.825000X0.150000X-0.825000X0.150000X-0.825000X-0.150000X0.825000X-0.150000X0*%
%ADD60RoundRect,0.250000X0.650000X-1.000000X0.650000X1.000000X-0.650000X1.000000X-0.650000X-1.000000X0*%
G04 APERTURE END LIST*
D10*
%TO.C,relay2*%
X75210000Y-70640000D03*
D11*
X69160000Y-72590000D03*
D10*
X69160000Y-84790000D03*
X81210000Y-84840000D03*
D11*
X81160000Y-72590000D03*
%TD*%
D12*
%TO.C,crs2*%
X18530000Y-62380000D03*
D13*
X14730000Y-62380000D03*
%TD*%
D14*
%TO.C,usb1*%
X53360000Y-25840000D03*
D15*
X53360000Y-23300000D03*
%TD*%
D16*
%TO.C,PS1*%
X37757500Y-89487500D03*
D17*
X37757500Y-83487500D03*
X4157500Y-95487500D03*
X4157500Y-77487500D03*
%TD*%
D18*
%TO.C,Relay Out*%
X91400000Y-95000000D03*
D19*
X88860000Y-95000000D03*
X86320000Y-95000000D03*
X83780000Y-95000000D03*
X81240000Y-95000000D03*
X78700000Y-95000000D03*
%TD*%
D14*
%TO.C,DIN*%
X5250000Y-29340000D03*
D15*
X5250000Y-26800000D03*
X5250000Y-24260000D03*
X5250000Y-21720000D03*
X5250000Y-19180000D03*
X5250000Y-16640000D03*
X5250000Y-14100000D03*
%TD*%
D13*
%TO.C,crs1*%
X24670000Y-67850000D03*
D12*
X28470000Y-67850000D03*
%TD*%
D20*
%TO.C,eprg1*%
X96000000Y-3420000D03*
D15*
X96000000Y-5960000D03*
X96000000Y-8500000D03*
X96000000Y-11040000D03*
X96000000Y-13580000D03*
%TD*%
D21*
%TO.C,IO3S*%
X54250000Y-30000000D03*
X56790000Y-30000000D03*
%TD*%
D22*
%TO.C,thermo*%
X5270000Y-58660000D03*
D23*
X5270000Y-53580000D03*
%TD*%
D10*
%TO.C,relay1*%
X91420000Y-70670000D03*
D11*
X85370000Y-72620000D03*
D10*
X85370000Y-84820000D03*
X97420000Y-84870000D03*
D11*
X97370000Y-72620000D03*
%TD*%
D24*
%TO.C,rb2*%
X44480000Y-72770000D03*
D25*
X64800000Y-72770000D03*
%TD*%
D26*
%TO.C,espprg*%
X93595000Y-26010000D03*
X93595000Y-21610000D03*
%TD*%
D20*
%TO.C,stprg*%
X96290000Y-47440000D03*
D15*
X96290000Y-49980000D03*
X96290000Y-52520000D03*
X96290000Y-55060000D03*
X96290000Y-57600000D03*
%TD*%
D13*
%TO.C,cr3*%
X26550000Y-58965354D03*
D12*
X26550000Y-55165354D03*
%TD*%
D27*
%TO.C,C2*%
X18040000Y-70390000D03*
D28*
X19540000Y-70390000D03*
%TD*%
D23*
%TO.C,220in1*%
X57410000Y-95230000D03*
D22*
X62490000Y-95230000D03*
X67570000Y-95230000D03*
%TD*%
D29*
%TO.C,HS2*%
X46310000Y-38132500D03*
D30*
X43770000Y-38132500D03*
X41230000Y-38132500D03*
X38690000Y-38132500D03*
X38690000Y-45752500D03*
X41230000Y-45752500D03*
X43770000Y-45752500D03*
X46310000Y-45752500D03*
%TD*%
D23*
%TO.C,acin1*%
X45615000Y-95180000D03*
D22*
X50695000Y-95180000D03*
%TD*%
D20*
%TO.C,OLED1*%
X96270000Y-32950000D03*
D15*
X96270000Y-35490000D03*
X96270000Y-38030000D03*
X96270000Y-40570000D03*
%TD*%
D31*
%TO.C,mcur1*%
X56125000Y-34820000D03*
D32*
X58665000Y-34820000D03*
%TD*%
D22*
%TO.C,L24*%
X38240000Y-65520000D03*
X38240000Y-70520000D03*
%TD*%
D20*
%TO.C,24in*%
X3680000Y-68950000D03*
D15*
X3680000Y-71490000D03*
%TD*%
D29*
%TO.C,HS1*%
X9120000Y-9710000D03*
D30*
X9120000Y-7170000D03*
X9120000Y-4630000D03*
X9120000Y-2090000D03*
X1500000Y-2090000D03*
X1500000Y-4630000D03*
X1500000Y-7170000D03*
X1500000Y-9710000D03*
%TD*%
D33*
%TO.C,DDO1*%
X28440000Y-3380000D03*
D19*
X30980000Y-3380000D03*
X33520000Y-3380000D03*
X36060000Y-3380000D03*
X38600000Y-3380000D03*
X41140000Y-3380000D03*
X43680000Y-3380000D03*
X46220000Y-3380000D03*
%TD*%
D26*
%TO.C,lse1*%
X65160000Y-38700000D03*
X65160000Y-41240000D03*
%TD*%
D24*
%TO.C,rb1*%
X44480000Y-86220000D03*
D25*
X64800000Y-86220000D03*
%TD*%
D13*
%TO.C,cr2*%
X37980000Y-55430000D03*
D12*
X37980000Y-59230000D03*
%TD*%
D23*
%TO.C,modbus*%
X5290000Y-35410000D03*
D22*
X5290000Y-40490000D03*
X5290000Y-45570000D03*
%TD*%
D34*
%TO.C,espio1*%
X64660000Y-24210000D03*
D35*
X64660000Y-22210000D03*
X66660000Y-24210000D03*
X66660000Y-22210000D03*
X68660000Y-24210000D03*
X68660000Y-22210000D03*
X70660000Y-24210000D03*
X70660000Y-22210000D03*
X72660000Y-24210000D03*
X72660000Y-22210000D03*
X74660000Y-24210000D03*
X74660000Y-22210000D03*
X76660000Y-24210000D03*
X76660000Y-22210000D03*
X78660000Y-24210000D03*
X78660000Y-22210000D03*
X80660000Y-24210000D03*
X80660000Y-22210000D03*
X82660000Y-24210000D03*
X82660000Y-22210000D03*
X84660000Y-24210000D03*
X84660000Y-22210000D03*
%TD*%
D20*
%TO.C,AIN1*%
X96330000Y-61670000D03*
D15*
X96330000Y-64210000D03*
X96330000Y-66750000D03*
%TD*%
D14*
%TO.C,iso5*%
X44900000Y-33180000D03*
D15*
X44900000Y-30640000D03*
X44900000Y-28100000D03*
X44900000Y-25560000D03*
%TD*%
D31*
%TO.C,pwrsel*%
X13495000Y-54150000D03*
D32*
X16035000Y-54150000D03*
X18575000Y-54150000D03*
%TD*%
D27*
%TO.C,C1*%
X10770000Y-70230000D03*
D28*
X12270000Y-70230000D03*
%TD*%
D36*
%TO.C,U2*%
X9887500Y-77510000D03*
X12187500Y-77510000D03*
D37*
X12187500Y-83810000D03*
D36*
X14487500Y-77510000D03*
%TD*%
D38*
%TO.C,r35*%
X24910000Y-7580000D03*
X24910000Y-9580000D03*
%TD*%
D39*
%TO.C,qm1*%
X20822500Y-31980000D03*
X20822500Y-30080000D03*
X22697500Y-31030000D03*
%TD*%
D29*
%TO.C,out1*%
X27030000Y-24800000D03*
X27030000Y-22260000D03*
X34650000Y-22260000D03*
X34650000Y-24800000D03*
%TD*%
D40*
%TO.C,r18*%
X64830000Y-78450000D03*
X64830000Y-76450000D03*
%TD*%
D41*
%TO.C,bridge1*%
X52300000Y-77280000D03*
X52300000Y-72180000D03*
X61200000Y-72180000D03*
X61200000Y-77280000D03*
%TD*%
D42*
%TO.C,r28*%
X20740000Y-24790000D03*
X23840000Y-24790000D03*
%TD*%
D43*
%TO.C,r17*%
X68650000Y-68850000D03*
X66650000Y-68850000D03*
%TD*%
D44*
%TO.C,dr1*%
X91450000Y-75910000D03*
X91450000Y-79210000D03*
%TD*%
D45*
%TO.C,cm7*%
X46317500Y-43410000D03*
X44242500Y-43410000D03*
%TD*%
D39*
%TO.C,Q2*%
X76275000Y-9320000D03*
X76275000Y-7420000D03*
X78150000Y-8370000D03*
%TD*%
D46*
%TO.C,qr1*%
X92402500Y-83247856D03*
X90502500Y-83247856D03*
X91452500Y-81372856D03*
%TD*%
D29*
%TO.C,out4*%
X14610000Y-9000000D03*
X12070000Y-9000000D03*
X12070000Y-1380000D03*
X14610000Y-1380000D03*
%TD*%
%TO.C,aco2*%
X49180000Y-66020000D03*
X49180000Y-63480000D03*
X56800000Y-63480000D03*
X56800000Y-66020000D03*
%TD*%
D43*
%TO.C,r21*%
X62510000Y-68880000D03*
X60510000Y-68880000D03*
%TD*%
D47*
%TO.C,cen1*%
X76700000Y-5537500D03*
X76700000Y-3462500D03*
%TD*%
D40*
%TO.C,r34*%
X24740000Y-4190000D03*
X24740000Y-2190000D03*
%TD*%
D48*
%TO.C,U3*%
X25655000Y-33640000D03*
X25655000Y-32370000D03*
X25655000Y-31100000D03*
X25655000Y-29830000D03*
X30605000Y-29830000D03*
X30605000Y-31100000D03*
X30605000Y-32370000D03*
X30605000Y-33640000D03*
%TD*%
D42*
%TO.C,r33*%
X11830000Y-13210000D03*
X14930000Y-13210000D03*
%TD*%
D49*
%TO.C,r29*%
X23970000Y-14920000D03*
X23970000Y-18020000D03*
%TD*%
D50*
%TO.C,U5*%
X22550000Y-89800000D03*
X22550000Y-91500000D03*
X22550000Y-93200000D03*
D51*
X13400000Y-93200000D03*
D50*
X22550000Y-94900000D03*
X22550000Y-96600000D03*
%TD*%
D29*
%TO.C,out3*%
X21640000Y-10220000D03*
X19100000Y-10220000D03*
X19100000Y-2600000D03*
X21640000Y-2600000D03*
%TD*%
D43*
%TO.C,r5*%
X39840000Y-43200000D03*
X37840000Y-43200000D03*
%TD*%
%TO.C,r23*%
X23115000Y-33780000D03*
X21115000Y-33780000D03*
%TD*%
D52*
%TO.C,ebj1*%
X56000000Y-26000000D03*
X58000000Y-26000000D03*
%TD*%
D53*
%TO.C,dr2*%
X78497500Y-79340000D03*
X75197500Y-79340000D03*
%TD*%
D54*
%TO.C,r2*%
X25157500Y-38830000D03*
X22057500Y-38830000D03*
%TD*%
D52*
%TO.C,rsj1*%
X33225000Y-34860000D03*
X35225000Y-34860000D03*
%TD*%
D29*
%TO.C,aco1*%
X68180000Y-63480000D03*
X68180000Y-66020000D03*
X60560000Y-66020000D03*
X60560000Y-63480000D03*
%TD*%
D52*
%TO.C,r30*%
X37920000Y-24730000D03*
X39920000Y-24730000D03*
%TD*%
%TO.C,r31*%
X37920000Y-18090000D03*
X39920000Y-18090000D03*
%TD*%
%TO.C,rsj0*%
X33225000Y-32810000D03*
X35225000Y-32810000D03*
%TD*%
D55*
%TO.C,cx1*%
X7630000Y-66972500D03*
X7630000Y-69047500D03*
%TD*%
D47*
%TO.C,cm4*%
X70170000Y-38647500D03*
X70170000Y-36572500D03*
%TD*%
D52*
%TO.C,r20*%
X49230000Y-68910000D03*
X51230000Y-68910000D03*
%TD*%
D40*
%TO.C,rlb1*%
X92400000Y-87630356D03*
X92400000Y-85630356D03*
%TD*%
D56*
%TO.C,cm6*%
X3632500Y-9720000D03*
X5707500Y-9720000D03*
%TD*%
D46*
%TO.C,Q1*%
X74030000Y-5267500D03*
X72130000Y-5267500D03*
X73080000Y-3392500D03*
%TD*%
D40*
%TO.C,rlb2*%
X76000000Y-87800000D03*
X76000000Y-85800000D03*
%TD*%
D52*
%TO.C,r26*%
X33240000Y-37660000D03*
X35240000Y-37660000D03*
%TD*%
D56*
%TO.C,c3*%
X28697500Y-39950000D03*
X30772500Y-39950000D03*
%TD*%
D41*
%TO.C,bridge2*%
X48490000Y-86910000D03*
X48490000Y-81810000D03*
X57390000Y-81810000D03*
X57390000Y-86910000D03*
%TD*%
D47*
%TO.C,cm3*%
X72310000Y-38667500D03*
X72310000Y-36592500D03*
%TD*%
%TO.C,cm2*%
X69500000Y-42537500D03*
X69500000Y-40462500D03*
%TD*%
D29*
%TO.C,out2*%
X27030000Y-18050000D03*
X27030000Y-15510000D03*
X34650000Y-15510000D03*
X34650000Y-18050000D03*
%TD*%
D43*
%TO.C,mxj1*%
X12500000Y-64500000D03*
X10500000Y-64500000D03*
%TD*%
D40*
%TO.C,rf1*%
X91160000Y-56000000D03*
X91160000Y-54000000D03*
%TD*%
D47*
%TO.C,cm5*%
X68070000Y-38657500D03*
X68070000Y-36582500D03*
%TD*%
D43*
%TO.C,rsjg1*%
X49400000Y-26330000D03*
X47400000Y-26330000D03*
%TD*%
D56*
%TO.C,c6*%
X28647500Y-37730000D03*
X30722500Y-37730000D03*
%TD*%
%TO.C,c7*%
X47382500Y-24260000D03*
X49457500Y-24260000D03*
%TD*%
D57*
%TO.C,di2*%
X22032500Y-41850000D03*
X25332500Y-41850000D03*
%TD*%
D43*
%TO.C,r22*%
X56826666Y-68880000D03*
X54826666Y-68880000D03*
%TD*%
D38*
%TO.C,r6*%
X35365000Y-28640000D03*
X35365000Y-30640000D03*
%TD*%
D58*
%TO.C,iso1*%
X38015000Y-29675000D03*
X39285000Y-29675000D03*
X40555000Y-29675000D03*
X41825000Y-29675000D03*
X41825000Y-34625000D03*
X40555000Y-34625000D03*
X39285000Y-34625000D03*
X38015000Y-34625000D03*
%TD*%
D38*
%TO.C,r1*%
X4470000Y-4620000D03*
X4470000Y-6620000D03*
%TD*%
D59*
%TO.C,U6*%
X7675000Y-60905000D03*
X7675000Y-62175000D03*
X7675000Y-63445000D03*
X7675000Y-64715000D03*
X2725000Y-64715000D03*
X2725000Y-63445000D03*
X2725000Y-62175000D03*
X2725000Y-60905000D03*
%TD*%
D46*
%TO.C,qr2*%
X75950000Y-83437500D03*
X74050000Y-83437500D03*
X75000000Y-81562500D03*
%TD*%
D60*
%TO.C,Ds1*%
X19510000Y-85050000D03*
X19510000Y-81050000D03*
%TD*%
D38*
%TO.C,r27*%
X33205000Y-28620000D03*
X33205000Y-30620000D03*
%TD*%
D52*
%TO.C,ebp2*%
X73340000Y-16270000D03*
X75340000Y-16270000D03*
%TD*%
D42*
%TO.C,r32*%
X18460000Y-13250000D03*
X21560000Y-13250000D03*
%TD*%
D38*
%TO.C,r19*%
X64830000Y-80410000D03*
X64830000Y-82410000D03*
%TD*%
D52*
%TO.C,r24*%
X21185000Y-28200000D03*
X23185000Y-28200000D03*
%TD*%
M02*
