%TF.GenerationSoftware,KiCad,Pcbnew,8.0.2-8.0.2-0~ubuntu22.04.1*%
%TF.CreationDate,2024-05-24T16:28:22+03:30*%
%TF.ProjectId,test,74657374-2e6b-4696-9361-645f70636258,rev?*%
%TF.SameCoordinates,Original*%
%TF.FileFunction,Paste,Bot*%
%TF.FilePolarity,Positive*%
%FSLAX46Y46*%
G04 Gerber Fmt 4.6, Leading zero omitted, Abs format (unit mm)*
G04 Created by KiCad (PCBNEW 8.0.2-8.0.2-0~ubuntu22.04.1) date 2024-05-24 16:28:22*
%MOMM*%
%LPD*%
G01*
G04 APERTURE LIST*
G04 Aperture macros list*
%AMRoundRect*
0 Rectangle with rounded corners*
0 $1 Rounding radius*
0 $2 $3 $4 $5 $6 $7 $8 $9 X,Y pos of 4 corners*
0 Add a 4 corners polygon primitive as box body*
4,1,4,$2,$3,$4,$5,$6,$7,$8,$9,$2,$3,0*
0 Add four circle primitives for the rounded corners*
1,1,$1+$1,$2,$3*
1,1,$1+$1,$4,$5*
1,1,$1+$1,$6,$7*
1,1,$1+$1,$8,$9*
0 Add four rect primitives between the rounded corners*
20,1,$1+$1,$2,$3,$4,$5,0*
20,1,$1+$1,$4,$5,$6,$7,0*
20,1,$1+$1,$6,$7,$8,$9,0*
20,1,$1+$1,$8,$9,$2,$3,0*%
G04 Aperture macros list end*
%ADD10RoundRect,0.375000X-0.375000X0.625000X-0.375000X-0.625000X0.375000X-0.625000X0.375000X0.625000X0*%
%ADD11RoundRect,0.500000X-1.400000X0.500000X-1.400000X-0.500000X1.400000X-0.500000X1.400000X0.500000X0*%
%ADD12RoundRect,0.250000X-0.450000X0.350000X-0.450000X-0.350000X0.450000X-0.350000X0.450000X0.350000X0*%
%ADD13RoundRect,0.150000X-0.587500X-0.150000X0.587500X-0.150000X0.587500X0.150000X-0.587500X0.150000X0*%
%ADD14R,1.600000X1.600000*%
%ADD15RoundRect,0.250000X0.450000X-0.350000X0.450000X0.350000X-0.450000X0.350000X-0.450000X-0.350000X0*%
%ADD16R,1.500000X1.300000*%
%ADD17RoundRect,0.250000X-0.400000X-0.625000X0.400000X-0.625000X0.400000X0.625000X-0.400000X0.625000X0*%
%ADD18RoundRect,0.250000X0.350000X0.450000X-0.350000X0.450000X-0.350000X-0.450000X0.350000X-0.450000X0*%
%ADD19RoundRect,0.225000X-0.375000X0.225000X-0.375000X-0.225000X0.375000X-0.225000X0.375000X0.225000X0*%
%ADD20RoundRect,0.250000X0.337500X0.475000X-0.337500X0.475000X-0.337500X-0.475000X0.337500X-0.475000X0*%
%ADD21RoundRect,0.150000X0.150000X-0.587500X0.150000X0.587500X-0.150000X0.587500X-0.150000X-0.587500X0*%
%ADD22RoundRect,0.250000X0.475000X-0.337500X0.475000X0.337500X-0.475000X0.337500X-0.475000X-0.337500X0*%
%ADD23RoundRect,0.150000X-0.825000X-0.150000X0.825000X-0.150000X0.825000X0.150000X-0.825000X0.150000X0*%
%ADD24RoundRect,0.250000X-0.625000X0.400000X-0.625000X-0.400000X0.625000X-0.400000X0.625000X0.400000X0*%
%ADD25RoundRect,0.250000X2.050000X0.300000X-2.050000X0.300000X-2.050000X-0.300000X2.050000X-0.300000X0*%
%ADD26RoundRect,0.250000X2.025000X2.375000X-2.025000X2.375000X-2.025000X-2.375000X2.025000X-2.375000X0*%
%ADD27RoundRect,0.250000X-0.350000X-0.450000X0.350000X-0.450000X0.350000X0.450000X-0.350000X0.450000X0*%
%ADD28RoundRect,0.225000X0.225000X0.375000X-0.225000X0.375000X-0.225000X-0.375000X0.225000X-0.375000X0*%
%ADD29RoundRect,0.250000X0.400000X0.625000X-0.400000X0.625000X-0.400000X-0.625000X0.400000X-0.625000X0*%
%ADD30RoundRect,0.250000X-0.475000X0.337500X-0.475000X-0.337500X0.475000X-0.337500X0.475000X0.337500X0*%
%ADD31RoundRect,0.250000X-0.337500X-0.475000X0.337500X-0.475000X0.337500X0.475000X-0.337500X0.475000X0*%
%ADD32RoundRect,0.225000X-0.225000X-0.375000X0.225000X-0.375000X0.225000X0.375000X-0.225000X0.375000X0*%
%ADD33RoundRect,0.150000X-0.150000X0.825000X-0.150000X-0.825000X0.150000X-0.825000X0.150000X0.825000X0*%
%ADD34RoundRect,0.150000X0.825000X0.150000X-0.825000X0.150000X-0.825000X-0.150000X0.825000X-0.150000X0*%
%ADD35RoundRect,0.250000X0.650000X-1.000000X0.650000X1.000000X-0.650000X1.000000X-0.650000X-1.000000X0*%
G04 APERTURE END LIST*
D10*
%TO.C,U2*%
X9887500Y-77510000D03*
X12187500Y-77510000D03*
D11*
X12187500Y-83810000D03*
D10*
X14487500Y-77510000D03*
%TD*%
D12*
%TO.C,r35*%
X24910000Y-7580000D03*
X24910000Y-9580000D03*
%TD*%
D13*
%TO.C,qm1*%
X20822500Y-31980000D03*
X20822500Y-30080000D03*
X22697500Y-31030000D03*
%TD*%
D14*
%TO.C,out1*%
X27030000Y-24800000D03*
X27030000Y-22260000D03*
X34650000Y-22260000D03*
X34650000Y-24800000D03*
%TD*%
D15*
%TO.C,r18*%
X64830000Y-78450000D03*
X64830000Y-76450000D03*
%TD*%
D16*
%TO.C,bridge1*%
X52300000Y-77280000D03*
X52300000Y-72180000D03*
X61200000Y-72180000D03*
X61200000Y-77280000D03*
%TD*%
D17*
%TO.C,r28*%
X20740000Y-24790000D03*
X23840000Y-24790000D03*
%TD*%
D18*
%TO.C,r17*%
X68650000Y-68850000D03*
X66650000Y-68850000D03*
%TD*%
D19*
%TO.C,dr1*%
X91450000Y-75910000D03*
X91450000Y-79210000D03*
%TD*%
D20*
%TO.C,cm7*%
X46317500Y-43410000D03*
X44242500Y-43410000D03*
%TD*%
D13*
%TO.C,Q2*%
X76275000Y-9320000D03*
X76275000Y-7420000D03*
X78150000Y-8370000D03*
%TD*%
D21*
%TO.C,qr1*%
X92402500Y-83247856D03*
X90502500Y-83247856D03*
X91452500Y-81372856D03*
%TD*%
D14*
%TO.C,out4*%
X14610000Y-9000000D03*
X12070000Y-9000000D03*
X12070000Y-1380000D03*
X14610000Y-1380000D03*
%TD*%
%TO.C,aco2*%
X49180000Y-66020000D03*
X49180000Y-63480000D03*
X56800000Y-63480000D03*
X56800000Y-66020000D03*
%TD*%
D18*
%TO.C,r21*%
X62510000Y-68880000D03*
X60510000Y-68880000D03*
%TD*%
D22*
%TO.C,cen1*%
X76700000Y-5537500D03*
X76700000Y-3462500D03*
%TD*%
D15*
%TO.C,r34*%
X24740000Y-4190000D03*
X24740000Y-2190000D03*
%TD*%
D23*
%TO.C,U3*%
X25655000Y-33640000D03*
X25655000Y-32370000D03*
X25655000Y-31100000D03*
X25655000Y-29830000D03*
X30605000Y-29830000D03*
X30605000Y-31100000D03*
X30605000Y-32370000D03*
X30605000Y-33640000D03*
%TD*%
D17*
%TO.C,r33*%
X11830000Y-13210000D03*
X14930000Y-13210000D03*
%TD*%
D24*
%TO.C,r29*%
X23970000Y-14920000D03*
X23970000Y-18020000D03*
%TD*%
D25*
%TO.C,U5*%
X22550000Y-89800000D03*
X22550000Y-91500000D03*
X22550000Y-93200000D03*
D26*
X15825000Y-95975000D03*
X15825000Y-90425000D03*
X10975000Y-95975000D03*
X10975000Y-90425000D03*
D25*
X22550000Y-94900000D03*
X22550000Y-96600000D03*
%TD*%
D14*
%TO.C,out3*%
X21640000Y-10220000D03*
X19100000Y-10220000D03*
X19100000Y-2600000D03*
X21640000Y-2600000D03*
%TD*%
D18*
%TO.C,r5*%
X39840000Y-43200000D03*
X37840000Y-43200000D03*
%TD*%
%TO.C,r23*%
X23115000Y-33780000D03*
X21115000Y-33780000D03*
%TD*%
D27*
%TO.C,ebj1*%
X56000000Y-26000000D03*
X58000000Y-26000000D03*
%TD*%
D28*
%TO.C,dr2*%
X78497500Y-79340000D03*
X75197500Y-79340000D03*
%TD*%
D29*
%TO.C,r2*%
X25157500Y-38830000D03*
X22057500Y-38830000D03*
%TD*%
D27*
%TO.C,rsj1*%
X33225000Y-34860000D03*
X35225000Y-34860000D03*
%TD*%
D14*
%TO.C,aco1*%
X68180000Y-63480000D03*
X68180000Y-66020000D03*
X60560000Y-66020000D03*
X60560000Y-63480000D03*
%TD*%
D27*
%TO.C,r30*%
X37920000Y-24730000D03*
X39920000Y-24730000D03*
%TD*%
%TO.C,r31*%
X37920000Y-18090000D03*
X39920000Y-18090000D03*
%TD*%
%TO.C,rsj0*%
X33225000Y-32810000D03*
X35225000Y-32810000D03*
%TD*%
D30*
%TO.C,cx1*%
X7630000Y-66972500D03*
X7630000Y-69047500D03*
%TD*%
D22*
%TO.C,cm4*%
X70170000Y-38647500D03*
X70170000Y-36572500D03*
%TD*%
D27*
%TO.C,r20*%
X49230000Y-68910000D03*
X51230000Y-68910000D03*
%TD*%
D15*
%TO.C,rlb1*%
X92400000Y-87630356D03*
X92400000Y-85630356D03*
%TD*%
D31*
%TO.C,cm6*%
X3632500Y-9720000D03*
X5707500Y-9720000D03*
%TD*%
D21*
%TO.C,Q1*%
X74030000Y-5267500D03*
X72130000Y-5267500D03*
X73080000Y-3392500D03*
%TD*%
D15*
%TO.C,rlb2*%
X76000000Y-87800000D03*
X76000000Y-85800000D03*
%TD*%
D27*
%TO.C,r26*%
X33240000Y-37660000D03*
X35240000Y-37660000D03*
%TD*%
D31*
%TO.C,c3*%
X28697500Y-39950000D03*
X30772500Y-39950000D03*
%TD*%
D16*
%TO.C,bridge2*%
X48490000Y-86910000D03*
X48490000Y-81810000D03*
X57390000Y-81810000D03*
X57390000Y-86910000D03*
%TD*%
D22*
%TO.C,cm3*%
X72310000Y-38667500D03*
X72310000Y-36592500D03*
%TD*%
%TO.C,cm2*%
X69500000Y-42537500D03*
X69500000Y-40462500D03*
%TD*%
D14*
%TO.C,out2*%
X27030000Y-18050000D03*
X27030000Y-15510000D03*
X34650000Y-15510000D03*
X34650000Y-18050000D03*
%TD*%
D18*
%TO.C,mxj1*%
X12500000Y-64500000D03*
X10500000Y-64500000D03*
%TD*%
D15*
%TO.C,rf1*%
X91160000Y-56000000D03*
X91160000Y-54000000D03*
%TD*%
D22*
%TO.C,cm5*%
X68070000Y-38657500D03*
X68070000Y-36582500D03*
%TD*%
D18*
%TO.C,rsjg1*%
X49400000Y-26330000D03*
X47400000Y-26330000D03*
%TD*%
D31*
%TO.C,c6*%
X28647500Y-37730000D03*
X30722500Y-37730000D03*
%TD*%
%TO.C,c7*%
X47382500Y-24260000D03*
X49457500Y-24260000D03*
%TD*%
D32*
%TO.C,di2*%
X22032500Y-41850000D03*
X25332500Y-41850000D03*
%TD*%
D18*
%TO.C,r22*%
X56826666Y-68880000D03*
X54826666Y-68880000D03*
%TD*%
D12*
%TO.C,r6*%
X35365000Y-28640000D03*
X35365000Y-30640000D03*
%TD*%
D33*
%TO.C,iso1*%
X38015000Y-29675000D03*
X39285000Y-29675000D03*
X40555000Y-29675000D03*
X41825000Y-29675000D03*
X41825000Y-34625000D03*
X40555000Y-34625000D03*
X39285000Y-34625000D03*
X38015000Y-34625000D03*
%TD*%
D12*
%TO.C,r1*%
X4470000Y-4620000D03*
X4470000Y-6620000D03*
%TD*%
D34*
%TO.C,U6*%
X7675000Y-60905000D03*
X7675000Y-62175000D03*
X7675000Y-63445000D03*
X7675000Y-64715000D03*
X2725000Y-64715000D03*
X2725000Y-63445000D03*
X2725000Y-62175000D03*
X2725000Y-60905000D03*
%TD*%
D21*
%TO.C,qr2*%
X75950000Y-83437500D03*
X74050000Y-83437500D03*
X75000000Y-81562500D03*
%TD*%
D35*
%TO.C,Ds1*%
X19510000Y-85050000D03*
X19510000Y-81050000D03*
%TD*%
D12*
%TO.C,r27*%
X33205000Y-28620000D03*
X33205000Y-30620000D03*
%TD*%
D27*
%TO.C,ebp2*%
X73340000Y-16270000D03*
X75340000Y-16270000D03*
%TD*%
D17*
%TO.C,r32*%
X18460000Y-13250000D03*
X21560000Y-13250000D03*
%TD*%
D12*
%TO.C,r19*%
X64830000Y-80410000D03*
X64830000Y-82410000D03*
%TD*%
D27*
%TO.C,r24*%
X21185000Y-28200000D03*
X23185000Y-28200000D03*
%TD*%
M02*
