M48
; DRILL file {KiCad 8.0.2-8.0.2-0~ubuntu22.04.1} date 2024-05-24T16:29:10+0330
; FORMAT={-:-/ absolute / inch / decimal}
; #@! TF.CreationDate,2024-05-24T16:29:10+03:30
; #@! TF.GenerationSoftware,Kicad,Pcbnew,8.0.2-8.0.2-0~ubuntu22.04.1
; #@! TF.FileFunction,Plated,1,2,PTH
FMAT,2
INCH
; #@! TA.AperFunction,Plated,PTH,ComponentDrill
T1C0.0079
; #@! TA.AperFunction,Plated,PTH,ViaDrill
T2C0.0118
; #@! TA.AperFunction,Plated,PTH,ViaDrill
T3C0.0157
; #@! TA.AperFunction,Plated,PTH,ViaDrill
T4C0.0197
; #@! TA.AperFunction,Plated,PTH,ComponentDrill
T5C0.0197
; #@! TA.AperFunction,Plated,PTH,ViaDrill
T6C0.0236
; #@! TA.AperFunction,Plated,PTH,ComponentDrill
T7C0.0236
; #@! TA.AperFunction,Plated,PTH,ViaDrill
T8C0.0276
; #@! TA.AperFunction,Plated,PTH,ComponentDrill
T9C0.0315
; #@! TA.AperFunction,Plated,PTH,ComponentDrill
T10C0.0394
; #@! TA.AperFunction,Plated,PTH,ComponentDrill
T11C0.0469
; #@! TA.AperFunction,Plated,PTH,ComponentDrill
T12C0.0472
; #@! TA.AperFunction,Plated,PTH,ComponentDrill
T13C0.0512
; #@! TA.AperFunction,Plated,PTH,ViaDrill
T14C0.1181
%
G90
G05
T1
X2.7346Y-0.3173
X2.7346Y-0.3724
X2.7622Y-0.2898
X2.7622Y-0.3449
X2.7622Y-0.4
X2.7898Y-0.3173
X2.7898Y-0.3724
X2.8173Y-0.2898
X2.8173Y-0.3449
X2.8173Y-0.4
X2.8449Y-0.3173
X2.8449Y-0.3724
T2
X2.9646Y-0.137
X3.4969Y-2.2505
X3.5394Y-2.0685
X3.8933Y-1.1508
T3
X0.0803Y-1.9685
X0.224Y-0.0535
X0.2571Y-1.3024
X0.276Y-1.2531
X0.285Y-0.3799
X0.2945Y-1.6484
X0.3012Y-1.0335
X0.3012Y-1.3772
X0.3016Y-0.1366
X0.3067Y-1.8457
X0.3087Y-0.9429
X0.3102Y-0.8441
X0.435Y-0.137
X0.4366Y-1.3047
X0.4465Y-1.0665
X0.4465Y-1.1051
X0.4657Y-2.2256
X0.4669Y-1.2594
X0.4898Y-1.5008
X0.4898Y-1.5457
X0.4909Y-1.5988
X0.5268Y-0.113
X0.5441Y-0.4173
X0.5512Y-0.4539
X0.5561Y-1.3809
X0.6264Y-2.3421
X0.6618Y-1.5051
X0.6622Y-1.3874
X0.689Y-1.1437
X0.7256Y-1.1433
X0.7291Y-1.5047
X0.872Y-0.9543
X0.8787Y-0.6906
X0.9169Y-1.8236
X0.9398Y-1.6276
X0.9406Y-1.5894
X0.9409Y-1.1803
X0.9484Y-0.2303
X1.0484Y-3.7764
X1.0776Y-3.7992
X1.1047Y-1.2575
X1.1071Y-3.7724
X1.1374Y-1.374
X1.1374Y-1.7244
X1.1932Y-0.7243
X1.2476Y-1.1331
X1.248Y-1.7181
X1.2685Y-0.752
X1.2957Y-0.8862
X1.3528Y-1.6075
X1.3665Y-0.0709
X1.3701Y-0.2091
X1.4024Y-2.1594
X1.4268Y-0.2193
X1.4323Y-0.928
X1.4906Y-0.7827
X1.5287Y-0.5244
X1.6228Y-0.5815
X1.6402Y-1.2693
X1.6866Y-1.2705
X1.689Y-1.0602
X1.7118Y-0.9425
X1.7173Y-2.3409
X1.765Y-2.3945
X1.7724Y-0.3028
X1.7764Y-0.4295
X1.7764Y-1.4
X1.8429Y-2.1059
X1.8516Y-0.4528
X1.852Y-0.5075
X1.8543Y-1.3972
X1.8598Y-0.0394
X1.8618Y-2.1811
X1.8638Y-1.3047
X1.8929Y-0.0843
X1.9106Y-2.1807
X1.9961Y-0.572
X1.9972Y-0.7106
X2.0402Y-2.1807
X2.0528Y-1.3209
X2.0937Y-1.3563
X2.0957Y-1.8547
X2.1039Y-0.8496
X2.1673Y-2.1327
X2.2024Y-0.2567
X2.2134Y-0.2961
X2.2744Y-1.726
X2.3154Y-2.1461
X2.3169Y-2.189
X2.3283Y-1.9898
X2.378Y-2.3398
X2.3858Y-2.2693
X2.4335Y-0.2953
X2.4366Y-1.1492
X2.4437Y-2.3382
X2.4618Y-2.189
X2.489Y-0.9055
X2.5031Y-2.337
X2.5744Y-2.3343
X2.6126Y-0.3303
X2.6925Y-1.3803
X2.715Y-1.2118
X2.7626Y-2.4791
X2.7709Y-0.235
X2.7823Y-1.9902
X2.7874Y-1.9508
X2.7933Y-1.0374
X2.8236Y-2.0732
X2.8457Y-1.2457
X2.8602Y-1.5917
X2.8673Y-1.0524
X2.9024Y-0.2902
X2.9122Y-0.4142
X2.9315Y-0.3157
X2.9331Y-1.626
X2.9618Y-0.1917
X2.9618Y-0.2303
X3.0283Y-0.6748
X3.0567Y-0.5346
X3.0709Y-0.165
X3.0713Y-0.4957
X3.0752Y-2.0819
X3.0953Y-0.135
X3.1047Y-0.2449
X3.1189Y-2.0744
X3.1287Y-0.1992
X3.1327Y-0.3957
X3.1374Y-0.324
X3.1469Y-1.5354
X3.1488Y-1.4878
X3.1898Y-0.7858
X3.2362Y-2.2193
X3.2378Y-2.1457
X3.2539Y-0.4925
X3.2598Y-0.5319
X3.3067Y-0.7902
X3.3165Y-1.9787
X3.3252Y-0.1693
X3.3622Y-1.5807
X3.3638Y-1.5331
X3.3661Y-1.4846
X3.3815Y-1.9787
X3.4614Y-0.1098
X3.5114Y-1.5803
X3.5118Y-1.635
X3.5122Y-1.5299
X3.589Y-0.6654
X3.615Y-2.0433
X3.6469Y-0.7925
X3.648Y-0.7484
X3.6776Y-0.137
X3.7677Y-0.6717
X3.7697Y-3.0799
X3.7827Y-3.037
X3.8146Y-3.0654
X3.8311Y-3.0236
X3.8354Y-1.6898
X3.8606Y-1.7291
X3.8717Y-0.813
X3.8878Y-0.7157
X3.8976Y-0.0319
X3.8992Y-0.7571
X3.9Y-0.6791
T4
X2.2524Y-0.4811
X2.4327Y-0.5906
X2.5689Y-0.5906
X2.6054Y-0.4921
X2.6369Y-0.5358
X2.6843Y-0.5386
X2.7319Y-0.5391
X2.7744Y-2.1461
X2.7791Y-0.5406
X3.0335Y-2.1476
X3.111Y-0.6362
X3.1126Y-0.5354
X3.1126Y-0.585
X3.2949Y-0.3409
X3.2969Y-0.3909
X3.2984Y-0.2909
X3.2984Y-0.4409
X3.315Y-0.2409
X3.3996Y-0.6795
X3.4587Y-2.1362
X3.463Y-0.1626
X3.5134Y-2.1362
X3.5559Y-1.8634
X3.5874Y-1.8953
T5
X2.5654Y-1.5236
X2.5654Y-1.6236
T6
X0.0689Y-3.7594
X0.0689Y-3.8563
X0.1043Y-3.4106
X0.1043Y-3.6335
X0.1063Y-3.2988
X0.1063Y-3.5217
X0.1118Y-0.2323
X0.1413Y-2.9539
X0.1504Y-2.2146
X0.1681Y-3.8571
X0.1689Y-0.0791
X0.2031Y-1.2551
X0.2689Y-3.461
X0.2697Y-3.5343
X0.2697Y-3.6024
X0.2764Y-2.224
X0.2772Y-3.8571
X0.2965Y-1.7165
X0.3034Y-0.6119
X0.3035Y-0.7071
X0.3189Y-1.4929
X0.4433Y-0.4488
X0.4504Y-0.2331
X0.5098Y-0.2335
X0.5835Y-3.2165
X0.5953Y-2.9008
X0.6209Y-1.7894
X0.6268Y-0.9319
X0.6421Y-2.9374
X0.6428Y-0.7021
X0.6512Y-3.215
X0.6661Y-0.1244
X0.6827Y-1.8114
X0.726Y-0.6075
X0.7437Y-0.2492
X0.7665Y-0.7236
X0.7866Y-0.6069
X0.8354Y-3.0047
X0.8413Y-2.2724
X0.8583Y-1.7862
X0.8606Y-2.1457
X0.8614Y-0.6102
X0.8673Y-0.2118
X0.8709Y-0.8693
X0.9453Y-1.6862
X1.0417Y-1.7638
X1.076Y-3.2386
X1.076Y-3.4083
X1.076Y-3.5795
X1.0783Y-0.2591
X1.1327Y-2.461
X1.1618Y-0.3248
X1.1768Y-2.9484
X1.1768Y-3.1181
X1.1768Y-3.2894
X1.1791Y-2.2929
X1.2445Y-0.5122
X1.2657Y-0.6606
X1.2756Y-0.226
X1.2764Y-0.2823
X1.2866Y-2.4941
X1.2898Y-1.6803
X1.348Y-3.7142
X1.352Y-3.7693
X1.3606Y-2.128
X1.4488Y-1.3291
X1.4614Y-1.7693
X1.4827Y-1.5787
X1.5016Y-0.3591
X1.5051Y-0.0362
X1.5469Y-1.5799
X1.5724Y-3.7016
X1.5776Y-3.1516
X1.5803Y-3.0791
X1.5843Y-3.0063
X1.6209Y-0.0362
X1.6291Y-3.5839
X1.637Y-2.7098
X1.6488Y-0.3484
X1.652Y-1.5819
X1.6646Y-2.4902
X1.7256Y-3.0154
X1.7441Y-0.0362
X1.769Y-0.7661
X1.7917Y-2.0823
X1.8165Y-2.6488
X1.8768Y-1.5815
X1.8846Y-0.7165
X1.9091Y-0.1614
X1.9583Y-2.0665
X1.9772Y-3.3126
X1.9969Y-2.298
X2.0079Y-0.6496
X2.0185Y-2.5709
X2.0197Y-0.2327
X2.0248Y-2.4941
X2.0319Y-2.1134
X2.0587Y-3.5654
X2.0602Y-3.452
X2.0661Y-0.2685
X2.0669Y-0.2079
X2.1106Y-2.1736
X2.126Y-3.7437
X2.1276Y-3.798
X2.1488Y-3.4094
X2.1524Y-2.5299
X2.1591Y-3.048
X2.1665Y-3.1957
X2.1713Y-2.2811
X2.1953Y-1.5791
X2.2047Y-0.1772
X2.2098Y-3.3425
X2.2224Y-2.1886
X2.2244Y-2.815
X2.2441Y-0.9449
X2.2583Y-1.5732
X2.3055Y-2.5055
X2.3106Y-2.6673
X2.3283Y-3.0382
X2.3819Y-1.1024
X2.4157Y-0.3657
X2.5075Y-2.4764
X2.5454Y-1.2277
X2.5906Y-1.9858
X2.5955Y-2.1919
X2.598Y-2.5827
X2.6177Y-0.0933
X2.6539Y-2.1406
X2.6713Y-3.5772
X2.6945Y-0.0925
X2.7063Y-1.9327
X2.7181Y-3.072
X2.7273Y-0.2067
X2.7528Y-3.2193
X2.7555Y-2.9972
X2.7602Y-2.7606
X2.7768Y-3.5189
X2.7772Y-3.4429
X2.7772Y-3.8031
X2.815Y-0.6476
X2.8228Y-1.3811
X2.8437Y-1.3228
X2.8567Y-0.5236
X2.8898Y-3.1299
X2.8992Y-3.3791
X2.8992Y-3.4354
X2.9047Y-2.8846
X2.9106Y-3.5465
X2.9126Y-0.5228
X2.9134Y-1.6882
X2.9378Y-3.0236
X2.9697Y-2.4366
X2.9709Y-3.548
X2.9854Y-1.3657
X2.9972Y-2.9634
X2.9992Y-2.3406
X3.0028Y-1.6429
X3.0311Y-3.548
X3.0535Y-2.561
X3.0539Y-1.0457
X3.0642Y-2.3406
X3.0787Y-2.4264
X3.0949Y-1.3315
X3.1094Y-2.6425
X3.122Y-1.276
X3.1335Y-1.2201
X3.1413Y-2.4256
X3.1496Y-1.9882
X3.1717Y-3.5642
X3.2283Y-1.9488
X3.2283Y-2.3622
X3.2315Y-3.5327
X3.2339Y-1.7016
X3.2421Y-2.0252
X3.2713Y-3.2626
X3.274Y-3.0079
X3.2791Y-3.1362
X3.2957Y-1.687
X3.3241Y-2.2521
X3.337Y-1.0882
X3.3634Y-1.6685
X3.3961Y-3.1752
X3.4051Y-2.4752
X3.4209Y-3.0165
X3.4213Y-3.4638
X3.4543Y-2.8362
X3.4622Y-2.4744
X3.4976Y-0.681
X3.5425Y-1.9882
X3.5449Y-3.5138
X3.5504Y-3.6488
X3.6098Y-1.7185
X3.611Y-3.5417
X3.6114Y-1.4976
X3.6752Y-1.7197
X3.6823Y-0.0827
X3.6984Y-2.8303
X3.7197Y-2.7213
X3.7976Y-0.9728
X3.8315Y-3.7228
X3.8319Y-3.6638
X3.8409Y-0.9157
X3.8469Y-3.2138
X3.8768Y-3.4689
T7
X0.424Y-2.765
X0.4831Y-2.765
X0.7102Y-2.7713
X0.7693Y-2.7713
T8
X0.1969Y-3.3465
T9
X0.0591Y-0.0823
X0.0591Y-0.1823
X0.0591Y-0.2823
X0.0591Y-0.3823
X0.3591Y-0.0823
X0.3591Y-0.1823
X0.3591Y-0.2823
X0.3591Y-0.3823
X1.5232Y-1.5013
X1.5232Y-1.8013
X1.6232Y-1.5013
X1.6232Y-1.8013
X1.7232Y-1.5013
X1.7232Y-1.8013
X1.8232Y-1.5013
X1.8232Y-1.8013
X2.1358Y-1.1811
X2.2358Y-1.1811
X2.5457Y-0.8744
X2.5457Y-0.9531
X2.6244Y-0.8744
X2.6244Y-0.9531
X2.7031Y-0.8744
X2.7031Y-0.9531
X2.7819Y-0.8744
X2.7819Y-0.9531
X2.8606Y-0.8744
X2.8606Y-0.9531
X2.9394Y-0.8744
X2.9394Y-0.9531
X3.0181Y-0.8744
X3.0181Y-0.9531
X3.0969Y-0.8744
X3.0969Y-0.9531
X3.1756Y-0.8744
X3.1756Y-0.9531
X3.2543Y-0.8744
X3.2543Y-0.9531
X3.3331Y-0.8744
X3.3331Y-0.9531
T10
X0.1637Y-3.0507
X0.1637Y-3.7594
X0.5313Y-2.1319
X0.5799Y-2.4559
X0.6313Y-2.1319
X0.7295Y-2.4559
X0.7313Y-2.1319
X0.9713Y-2.6713
X1.0453Y-2.1719
X1.0453Y-2.3215
X1.1209Y-2.6713
X1.4865Y-3.2869
X1.4865Y-3.5231
X1.4953Y-2.1823
X1.4953Y-2.3319
X2.2096Y-1.3709
X2.3096Y-1.3709
X2.7228Y-2.8579
X3.1953Y-2.8579
X3.361Y-2.8591
X3.8335Y-2.8591
T11
X0.1449Y-2.7146
X0.1449Y-2.8146
X0.2067Y-0.5551
X0.2067Y-0.6551
X0.2067Y-0.7551
X0.2067Y-0.8551
X0.2067Y-0.9551
X0.2067Y-1.0551
X0.2067Y-1.1551
X1.1197Y-0.1331
X1.2197Y-0.1331
X1.3197Y-0.1331
X1.4197Y-0.1331
X1.5197Y-0.1331
X1.6197Y-0.1331
X1.7197Y-0.1331
X1.7677Y-1.0063
X1.7677Y-1.1063
X1.7677Y-1.2063
X1.7677Y-1.3063
X1.8197Y-0.1331
X2.1008Y-0.9173
X2.1008Y-1.0173
X3.0984Y-3.7402
X3.1984Y-3.7402
X3.2984Y-3.7402
X3.3984Y-3.7402
X3.4984Y-3.7402
X3.5984Y-3.7402
X3.7795Y-0.1346
X3.7795Y-0.2346
X3.7795Y-0.3346
X3.7795Y-0.4346
X3.7795Y-0.5346
X3.7902Y-1.2972
X3.7902Y-1.3972
X3.7902Y-1.4972
X3.7902Y-1.5972
X3.7909Y-1.8677
X3.7909Y-1.9677
X3.7909Y-2.0677
X3.7909Y-2.1677
X3.7909Y-2.2677
X3.7925Y-2.428
X3.7925Y-2.528
X3.7925Y-2.628
T12
X1.7512Y-2.865
X1.7512Y-3.3945
X2.5512Y-2.865
X2.5512Y-3.3945
T13
X0.2075Y-2.1094
X0.2075Y-2.3094
X0.2083Y-1.3941
X0.2083Y-1.5941
X0.2083Y-1.7941
X1.5055Y-2.5795
X1.5055Y-2.7764
X1.7959Y-3.7472
X1.9959Y-3.7472
X2.2602Y-3.7492
X2.4602Y-3.7492
X2.6602Y-3.7492
X2.7228Y-3.3382
X2.961Y-2.7811
X3.1972Y-3.3402
X3.361Y-3.3394
X3.5992Y-2.7823
X3.8354Y-3.3413
T14
X1.372Y-0.3339
X1.7256Y-3.1331
X3.8457Y-3.8413
M30
