%TF.GenerationSoftware,KiCad,Pcbnew,8.0.2-8.0.2-0~ubuntu22.04.1*%
%TF.CreationDate,2024-05-24T16:28:22+03:30*%
%TF.ProjectId,test,74657374-2e6b-4696-9361-645f70636258,rev?*%
%TF.SameCoordinates,Original*%
%TF.FileFunction,Soldermask,Top*%
%TF.FilePolarity,Negative*%
%FSLAX46Y46*%
G04 Gerber Fmt 4.6, Leading zero omitted, Abs format (unit mm)*
G04 Created by KiCad (PCBNEW 8.0.2-8.0.2-0~ubuntu22.04.1) date 2024-05-24 16:28:22*
%MOMM*%
%LPD*%
G01*
G04 APERTURE LIST*
G04 Aperture macros list*
%AMRoundRect*
0 Rectangle with rounded corners*
0 $1 Rounding radius*
0 $2 $3 $4 $5 $6 $7 $8 $9 X,Y pos of 4 corners*
0 Add a 4 corners polygon primitive as box body*
4,1,4,$2,$3,$4,$5,$6,$7,$8,$9,$2,$3,0*
0 Add four circle primitives for the rounded corners*
1,1,$1+$1,$2,$3*
1,1,$1+$1,$4,$5*
1,1,$1+$1,$6,$7*
1,1,$1+$1,$8,$9*
0 Add four rect primitives between the rounded corners*
20,1,$1+$1,$2,$3,$4,$5,0*
20,1,$1+$1,$4,$5,$6,$7,0*
20,1,$1+$1,$6,$7,$8,$9,0*
20,1,$1+$1,$8,$9,$2,$3,0*%
G04 Aperture macros list end*
%ADD10RoundRect,0.150000X0.150000X-0.650000X0.150000X0.650000X-0.150000X0.650000X-0.150000X-0.650000X0*%
%ADD11C,3.000000*%
%ADD12C,2.500000*%
%ADD13RoundRect,0.250000X0.337500X0.475000X-0.337500X0.475000X-0.337500X-0.475000X0.337500X-0.475000X0*%
%ADD14RoundRect,0.250000X0.350000X0.450000X-0.350000X0.450000X-0.350000X-0.450000X0.350000X-0.450000X0*%
%ADD15RoundRect,0.250000X-0.275000X-0.350000X0.275000X-0.350000X0.275000X0.350000X-0.275000X0.350000X0*%
%ADD16C,2.000000*%
%ADD17R,2.000000X2.000000*%
%ADD18RoundRect,0.250000X0.845000X-0.620000X0.845000X0.620000X-0.845000X0.620000X-0.845000X-0.620000X0*%
%ADD19O,2.190000X1.740000*%
%ADD20RoundRect,0.250000X0.450000X-0.350000X0.450000X0.350000X-0.450000X0.350000X-0.450000X-0.350000X0*%
%ADD21R,1.700000X2.000000*%
%ADD22O,1.700000X2.000000*%
%ADD23RoundRect,0.102000X-1.950000X-1.950000X1.950000X-1.950000X1.950000X1.950000X-1.950000X1.950000X0*%
%ADD24RoundRect,0.102000X-1.600000X-1.600000X1.600000X-1.600000X1.600000X1.600000X-1.600000X1.600000X0*%
%ADD25RoundRect,0.250000X0.620000X0.845000X-0.620000X0.845000X-0.620000X-0.845000X0.620000X-0.845000X0*%
%ADD26O,1.740000X2.190000*%
%ADD27RoundRect,0.250000X-0.845000X0.620000X-0.845000X-0.620000X0.845000X-0.620000X0.845000X0.620000X0*%
%ADD28R,1.300000X1.550000*%
%ADD29RoundRect,0.250000X-0.450000X0.350000X-0.450000X-0.350000X0.450000X-0.350000X0.450000X0.350000X0*%
%ADD30RoundRect,0.250000X-0.475000X0.337500X-0.475000X-0.337500X0.475000X-0.337500X0.475000X0.337500X0*%
%ADD31RoundRect,0.250000X-0.350000X-0.450000X0.350000X-0.450000X0.350000X0.450000X-0.350000X0.450000X0*%
%ADD32R,4.500000X2.000000*%
%ADD33R,1.600000X1.600000*%
%ADD34C,1.400000*%
%ADD35RoundRect,0.250000X0.475000X-0.337500X0.475000X0.337500X-0.475000X0.337500X-0.475000X-0.337500X0*%
%ADD36C,2.600000*%
%ADD37R,2.600000X2.600000*%
%ADD38RoundRect,0.225000X-0.375000X0.225000X-0.375000X-0.225000X0.375000X-0.225000X0.375000X0.225000X0*%
%ADD39C,2.400000*%
%ADD40O,2.400000X2.400000*%
%ADD41C,1.000000*%
%ADD42R,2.000000X0.500000*%
%ADD43RoundRect,0.150000X0.825000X0.150000X-0.825000X0.150000X-0.825000X-0.150000X0.825000X-0.150000X0*%
%ADD44RoundRect,0.250000X0.625000X-0.400000X0.625000X0.400000X-0.625000X0.400000X-0.625000X-0.400000X0*%
%ADD45RoundRect,0.250000X1.400000X0.600000X-1.400000X0.600000X-1.400000X-0.600000X1.400000X-0.600000X0*%
%ADD46RoundRect,0.225000X-0.225000X-0.375000X0.225000X-0.375000X0.225000X0.375000X-0.225000X0.375000X0*%
%ADD47RoundRect,0.250000X-0.337500X-0.475000X0.337500X-0.475000X0.337500X0.475000X-0.337500X0.475000X0*%
%ADD48R,1.200000X1.200000*%
%ADD49C,1.200000*%
%ADD50RoundRect,0.250000X-0.450000X0.325000X-0.450000X-0.325000X0.450000X-0.325000X0.450000X0.325000X0*%
%ADD51O,1.600000X1.600000*%
%ADD52RoundRect,0.250000X-0.625000X0.400000X-0.625000X-0.400000X0.625000X-0.400000X0.625000X0.400000X0*%
%ADD53R,1.700000X1.700000*%
%ADD54O,1.700000X1.700000*%
%ADD55R,1.500000X0.900000*%
%ADD56R,0.900000X1.500000*%
%ADD57C,0.600000*%
%ADD58R,3.900000X3.900000*%
%ADD59RoundRect,0.075000X-0.662500X-0.075000X0.662500X-0.075000X0.662500X0.075000X-0.662500X0.075000X0*%
%ADD60RoundRect,0.075000X-0.075000X-0.662500X0.075000X-0.662500X0.075000X0.662500X-0.075000X0.662500X0*%
%ADD61RoundRect,0.150000X-0.150000X0.512500X-0.150000X-0.512500X0.150000X-0.512500X0.150000X0.512500X0*%
%ADD62RoundRect,0.250000X-0.620000X-0.845000X0.620000X-0.845000X0.620000X0.845000X-0.620000X0.845000X0*%
%ADD63R,1.350000X1.350000*%
%ADD64O,1.350000X1.350000*%
G04 APERTURE END LIST*
D10*
%TO.C,flash1*%
X84995000Y-59740000D03*
X86265000Y-59740000D03*
X87535000Y-59740000D03*
X88805000Y-59740000D03*
X88805000Y-52540000D03*
X87535000Y-52540000D03*
X86265000Y-52540000D03*
X84995000Y-52540000D03*
%TD*%
D11*
%TO.C,relay2*%
X75210000Y-70640000D03*
D12*
X69160000Y-72590000D03*
D11*
X69160000Y-84790000D03*
X81210000Y-84840000D03*
D12*
X81160000Y-72590000D03*
%TD*%
D13*
%TO.C,clse2*%
X67187500Y-36340000D03*
X65112500Y-36340000D03*
%TD*%
D14*
%TO.C,rms2*%
X83900000Y-33100000D03*
X81900000Y-33100000D03*
%TD*%
D15*
%TO.C,L1*%
X73350000Y-65000000D03*
X75650000Y-65000000D03*
%TD*%
D16*
%TO.C,crs2*%
X18530000Y-62380000D03*
D17*
X14730000Y-62380000D03*
%TD*%
D18*
%TO.C,usb1*%
X53360000Y-25840000D03*
D19*
X53360000Y-23300000D03*
%TD*%
D20*
%TO.C,r8*%
X30500000Y-27500000D03*
X30500000Y-25500000D03*
%TD*%
D21*
%TO.C,PS1*%
X37757500Y-89487500D03*
D22*
X37757500Y-83487500D03*
X4157500Y-95487500D03*
X4157500Y-77487500D03*
%TD*%
D23*
%TO.C,BAT1*%
X36340000Y-14970000D03*
D24*
X44540000Y-14970000D03*
X28140000Y-14970000D03*
%TD*%
D25*
%TO.C,Relay Out*%
X91400000Y-95000000D03*
D26*
X88860000Y-95000000D03*
X86320000Y-95000000D03*
X83780000Y-95000000D03*
X81240000Y-95000000D03*
X78700000Y-95000000D03*
%TD*%
D18*
%TO.C,DIN*%
X5250000Y-29340000D03*
D19*
X5250000Y-26800000D03*
X5250000Y-24260000D03*
X5250000Y-21720000D03*
X5250000Y-19180000D03*
X5250000Y-16640000D03*
X5250000Y-14100000D03*
%TD*%
D17*
%TO.C,crs1*%
X24670000Y-67850000D03*
D16*
X28470000Y-67850000D03*
%TD*%
D14*
%TO.C,rres1*%
X67690000Y-29590000D03*
X65690000Y-29590000D03*
%TD*%
D27*
%TO.C,eprg1*%
X96000000Y-3420000D03*
D19*
X96000000Y-5960000D03*
X96000000Y-8500000D03*
X96000000Y-11040000D03*
X96000000Y-13580000D03*
%TD*%
D28*
%TO.C,SWB1*%
X50250000Y-20295000D03*
X50250000Y-12345000D03*
X54750000Y-20295000D03*
X54750000Y-12345000D03*
%TD*%
D14*
%TO.C,ra1*%
X92000000Y-64480000D03*
X90000000Y-64480000D03*
%TD*%
%TO.C,jadc1*%
X81500000Y-65000000D03*
X79500000Y-65000000D03*
%TD*%
D29*
%TO.C,r16*%
X30415000Y-39965000D03*
X30415000Y-41965000D03*
%TD*%
D30*
%TO.C,cf1*%
X87550000Y-48482500D03*
X87550000Y-50557500D03*
%TD*%
D31*
%TO.C,r14*%
X17652500Y-11005000D03*
X19652500Y-11005000D03*
%TD*%
D29*
%TO.C,rboot1*%
X73620000Y-30210000D03*
X73620000Y-32210000D03*
%TD*%
D32*
%TO.C,hse1*%
X63330000Y-45280000D03*
X54830000Y-45280000D03*
%TD*%
D33*
%TO.C,in6*%
X17642500Y-21435000D03*
X20182500Y-21435000D03*
X20182500Y-13815000D03*
X17642500Y-13815000D03*
%TD*%
D29*
%TO.C,i2c2*%
X81110000Y-27580000D03*
X81110000Y-29580000D03*
%TD*%
D34*
%TO.C,IO3S*%
X54250000Y-30000000D03*
X56790000Y-30000000D03*
%TD*%
D14*
%TO.C,ebp1*%
X88350000Y-15270000D03*
X86350000Y-15270000D03*
%TD*%
D29*
%TO.C,rf2*%
X91500000Y-56500000D03*
X91500000Y-58500000D03*
%TD*%
D35*
%TO.C,cch2*%
X91380000Y-14787500D03*
X91380000Y-12712500D03*
%TD*%
D36*
%TO.C,thermo*%
X5270000Y-58660000D03*
D37*
X5270000Y-53580000D03*
%TD*%
D38*
%TO.C,di4*%
X16885000Y-27692500D03*
X16885000Y-30992500D03*
%TD*%
D30*
%TO.C,cu1*%
X59400000Y-20332500D03*
X59400000Y-22407500D03*
%TD*%
D13*
%TO.C,cr1*%
X60097500Y-7230000D03*
X58022500Y-7230000D03*
%TD*%
D11*
%TO.C,relay1*%
X91420000Y-70670000D03*
D12*
X85370000Y-72620000D03*
D11*
X85370000Y-84820000D03*
X97420000Y-84870000D03*
D12*
X97370000Y-72620000D03*
%TD*%
D39*
%TO.C,rb2*%
X44480000Y-72770000D03*
D40*
X64800000Y-72770000D03*
%TD*%
D41*
%TO.C,espprg*%
X93595000Y-26010000D03*
X93595000Y-21610000D03*
D42*
X90895000Y-25410000D03*
X90895000Y-24610000D03*
X90895000Y-23810000D03*
X90895000Y-23010000D03*
X90895000Y-22210000D03*
D21*
X90995000Y-28260000D03*
X96445000Y-28260000D03*
X90995000Y-19360000D03*
X96445000Y-19360000D03*
%TD*%
D27*
%TO.C,stprg*%
X96290000Y-47440000D03*
D19*
X96290000Y-49980000D03*
X96290000Y-52520000D03*
X96290000Y-55060000D03*
X96290000Y-57600000D03*
%TD*%
D43*
%TO.C,CH340*%
X86150000Y-10830000D03*
X86150000Y-9560000D03*
X86150000Y-8290000D03*
X86150000Y-7020000D03*
X86150000Y-5750000D03*
X86150000Y-4480000D03*
X86150000Y-3210000D03*
X86150000Y-1940000D03*
X91100000Y-1940000D03*
X91100000Y-3210000D03*
X91100000Y-4480000D03*
X91100000Y-5750000D03*
X91100000Y-7020000D03*
X91100000Y-8290000D03*
X91100000Y-9560000D03*
X91100000Y-10830000D03*
%TD*%
D44*
%TO.C,r4*%
X14235000Y-30745000D03*
X14235000Y-27645000D03*
%TD*%
D17*
%TO.C,cr3*%
X26550000Y-58965354D03*
D16*
X26550000Y-55165354D03*
%TD*%
D45*
%TO.C,dz1*%
X81677500Y-67107831D03*
X76177500Y-67107831D03*
%TD*%
D20*
%TO.C,ra5*%
X84000000Y-65000000D03*
X84000000Y-63000000D03*
%TD*%
D31*
%TO.C,rled1*%
X69190000Y-36640000D03*
X71190000Y-36640000D03*
%TD*%
D46*
%TO.C,di6*%
X17640000Y-24220000D03*
X20940000Y-24220000D03*
%TD*%
D47*
%TO.C,cres1*%
X65632500Y-27510000D03*
X67707500Y-27510000D03*
%TD*%
D38*
%TO.C,di8*%
X16945000Y-39732500D03*
X16945000Y-43032500D03*
%TD*%
D48*
%TO.C,C2*%
X18040000Y-70390000D03*
D49*
X19540000Y-70390000D03*
%TD*%
D37*
%TO.C,220in1*%
X57410000Y-95230000D03*
D36*
X62490000Y-95230000D03*
X67570000Y-95230000D03*
%TD*%
D33*
%TO.C,in3*%
X19845000Y-33695000D03*
X19845000Y-36235000D03*
X27465000Y-36235000D03*
X27465000Y-33695000D03*
%TD*%
D31*
%TO.C,rms3*%
X81860000Y-39150000D03*
X83860000Y-39150000D03*
%TD*%
D13*
%TO.C,chse2*%
X56540000Y-49100000D03*
X54465000Y-49100000D03*
%TD*%
D35*
%TO.C,ce1*%
X61120000Y-3027500D03*
X61120000Y-952500D03*
%TD*%
D50*
%TO.C,D1*%
X71480000Y-28190000D03*
X71480000Y-30240000D03*
%TD*%
D33*
%TO.C,HS2*%
X46310000Y-38132500D03*
D51*
X43770000Y-38132500D03*
X41230000Y-38132500D03*
X38690000Y-38132500D03*
X38690000Y-45752500D03*
X41230000Y-45752500D03*
X43770000Y-45752500D03*
X46310000Y-45752500D03*
%TD*%
D28*
%TO.C,SWE1*%
X50250000Y-9255000D03*
X50250000Y-1305000D03*
X54750000Y-9255000D03*
X54750000Y-1305000D03*
%TD*%
D52*
%TO.C,r9*%
X14260000Y-22030000D03*
X14260000Y-25130000D03*
%TD*%
D33*
%TO.C,in8*%
X19885000Y-39805000D03*
X19885000Y-42345000D03*
X27505000Y-42345000D03*
X27505000Y-39805000D03*
%TD*%
D37*
%TO.C,acin1*%
X45615000Y-95180000D03*
D36*
X50695000Y-95180000D03*
%TD*%
D35*
%TO.C,crp1*%
X84120000Y-15337500D03*
X84120000Y-13262500D03*
%TD*%
D13*
%TO.C,cb1*%
X70017500Y-32060000D03*
X67942500Y-32060000D03*
%TD*%
D29*
%TO.C,ebp3*%
X87220000Y-20830000D03*
X87220000Y-22830000D03*
%TD*%
D38*
%TO.C,di3*%
X16820000Y-33590000D03*
X16820000Y-36890000D03*
%TD*%
D27*
%TO.C,OLED1*%
X96270000Y-32950000D03*
D19*
X96270000Y-35490000D03*
X96270000Y-38030000D03*
X96270000Y-40570000D03*
%TD*%
D30*
%TO.C,cm1*%
X78020000Y-49432500D03*
X78020000Y-51507500D03*
%TD*%
D53*
%TO.C,mcur1*%
X56125000Y-34820000D03*
D54*
X58665000Y-34820000D03*
%TD*%
D29*
%TO.C,r7*%
X30375000Y-33765000D03*
X30375000Y-35765000D03*
%TD*%
D44*
%TO.C,r12*%
X14245000Y-42765000D03*
X14245000Y-39665000D03*
%TD*%
D55*
%TO.C,U1*%
X63610000Y-1040000D03*
X63610000Y-2310000D03*
X63610000Y-3580000D03*
X63610000Y-4850000D03*
X63610000Y-6120000D03*
X63610000Y-7390000D03*
X63610000Y-8660000D03*
X63610000Y-9930000D03*
X63610000Y-11200000D03*
X63610000Y-12470000D03*
X63610000Y-13740000D03*
X63610000Y-15010000D03*
X63610000Y-16280000D03*
X63610000Y-17550000D03*
D56*
X65375000Y-18800000D03*
X66645000Y-18800000D03*
X67915000Y-18800000D03*
X69185000Y-18800000D03*
X70455000Y-18800000D03*
X71725000Y-18800000D03*
X72995000Y-18800000D03*
X74265000Y-18800000D03*
X75535000Y-18800000D03*
X76805000Y-18800000D03*
X78075000Y-18800000D03*
X79345000Y-18800000D03*
D55*
X81110000Y-17550000D03*
X81110000Y-16280000D03*
X81110000Y-15010000D03*
X81110000Y-13740000D03*
X81110000Y-12470000D03*
X81110000Y-11200000D03*
X81110000Y-9930000D03*
X81110000Y-8660000D03*
X81110000Y-7390000D03*
X81110000Y-6120000D03*
X81110000Y-4850000D03*
X81110000Y-3580000D03*
X81110000Y-2310000D03*
X81110000Y-1040000D03*
D57*
X69460000Y-8060000D03*
X69460000Y-9460000D03*
X70160000Y-7360000D03*
X70160000Y-8760000D03*
X70160000Y-10160000D03*
X70860000Y-8060000D03*
D58*
X70860000Y-8760000D03*
D57*
X70860000Y-9460000D03*
X71560000Y-7360000D03*
X71560000Y-8760000D03*
X71560000Y-10160000D03*
X72260000Y-8060000D03*
X72260000Y-9460000D03*
%TD*%
D38*
%TO.C,di5*%
X23340000Y-20880000D03*
X23340000Y-24180000D03*
%TD*%
D14*
%TO.C,rms1*%
X81900000Y-35100000D03*
X83900000Y-35100000D03*
%TD*%
D59*
%TO.C,mcu1*%
X70207500Y-40230000D03*
X70207500Y-40730000D03*
X70207500Y-41230000D03*
X70207500Y-41730000D03*
X70207500Y-42230000D03*
X70207500Y-42730000D03*
X70207500Y-43230000D03*
X70207500Y-43730000D03*
X70207500Y-44230000D03*
X70207500Y-44730000D03*
X70207500Y-45230000D03*
X70207500Y-45730000D03*
D60*
X71620000Y-47142500D03*
X72120000Y-47142500D03*
X72620000Y-47142500D03*
X73120000Y-47142500D03*
X73620000Y-47142500D03*
X74120000Y-47142500D03*
X74620000Y-47142500D03*
X75120000Y-47142500D03*
X75620000Y-47142500D03*
X76120000Y-47142500D03*
X76620000Y-47142500D03*
X77120000Y-47142500D03*
D59*
X78532500Y-45730000D03*
X78532500Y-45230000D03*
X78532500Y-44730000D03*
X78532500Y-44230000D03*
X78532500Y-43730000D03*
X78532500Y-43230000D03*
X78532500Y-42730000D03*
X78532500Y-42230000D03*
X78532500Y-41730000D03*
X78532500Y-41230000D03*
X78532500Y-40730000D03*
X78532500Y-40230000D03*
D60*
X77120000Y-38817500D03*
X76620000Y-38817500D03*
X76120000Y-38817500D03*
X75620000Y-38817500D03*
X75120000Y-38817500D03*
X74620000Y-38817500D03*
X74120000Y-38817500D03*
X73620000Y-38817500D03*
X73120000Y-38817500D03*
X72620000Y-38817500D03*
X72120000Y-38817500D03*
X71620000Y-38817500D03*
%TD*%
D13*
%TO.C,clse1*%
X67207500Y-34240000D03*
X65132500Y-34240000D03*
%TD*%
%TO.C,c4*%
X92097500Y-66620000D03*
X90022500Y-66620000D03*
%TD*%
D36*
%TO.C,L24*%
X38240000Y-65520000D03*
X38240000Y-70520000D03*
%TD*%
D61*
%TO.C,U4*%
X87672500Y-65162500D03*
X86722500Y-65162500D03*
X85772500Y-65162500D03*
X85772500Y-67437500D03*
X87672500Y-67437500D03*
%TD*%
D35*
%TO.C,ce2*%
X58000000Y-3087500D03*
X58000000Y-1012500D03*
%TD*%
D27*
%TO.C,24in*%
X3680000Y-68950000D03*
D19*
X3680000Y-71490000D03*
%TD*%
D33*
%TO.C,HS1*%
X9120000Y-9710000D03*
D51*
X9120000Y-7170000D03*
X9120000Y-4630000D03*
X9120000Y-2090000D03*
X1500000Y-2090000D03*
X1500000Y-4630000D03*
X1500000Y-7170000D03*
X1500000Y-9710000D03*
%TD*%
D33*
%TO.C,in4*%
X19875000Y-27705000D03*
X19875000Y-30245000D03*
X27495000Y-30245000D03*
X27495000Y-27705000D03*
%TD*%
D52*
%TO.C,r10*%
X12330000Y-16610000D03*
X12330000Y-19710000D03*
%TD*%
D47*
%TO.C,chse1*%
X61252500Y-49180000D03*
X63327500Y-49180000D03*
%TD*%
D31*
%TO.C,ra3*%
X90000000Y-62000000D03*
X92000000Y-62000000D03*
%TD*%
D62*
%TO.C,DDO1*%
X28440000Y-3380000D03*
D26*
X30980000Y-3380000D03*
X33520000Y-3380000D03*
X36060000Y-3380000D03*
X38600000Y-3380000D03*
X41140000Y-3380000D03*
X43680000Y-3380000D03*
X46220000Y-3380000D03*
%TD*%
D41*
%TO.C,lse1*%
X65160000Y-38700000D03*
X65160000Y-41240000D03*
%TD*%
D13*
%TO.C,cu2*%
X60117500Y-13710000D03*
X58042500Y-13710000D03*
%TD*%
D39*
%TO.C,rb1*%
X44480000Y-86220000D03*
D40*
X64800000Y-86220000D03*
%TD*%
D31*
%TO.C,i2c1*%
X73560000Y-28160000D03*
X75560000Y-28160000D03*
%TD*%
D17*
%TO.C,cr2*%
X37980000Y-55430000D03*
D16*
X37980000Y-59230000D03*
%TD*%
D37*
%TO.C,modbus*%
X5290000Y-35410000D03*
D36*
X5290000Y-40490000D03*
X5290000Y-45570000D03*
%TD*%
D14*
%TO.C,ru1*%
X60090000Y-17940000D03*
X58090000Y-17940000D03*
%TD*%
D31*
%TO.C,er1*%
X58100000Y-5060000D03*
X60100000Y-5060000D03*
%TD*%
D13*
%TO.C,cch1*%
X88437500Y-13210000D03*
X86362500Y-13210000D03*
%TD*%
D44*
%TO.C,r3*%
X14125000Y-36625000D03*
X14125000Y-33525000D03*
%TD*%
D63*
%TO.C,espio1*%
X64660000Y-24210000D03*
D64*
X64660000Y-22210000D03*
X66660000Y-24210000D03*
X66660000Y-22210000D03*
X68660000Y-24210000D03*
X68660000Y-22210000D03*
X70660000Y-24210000D03*
X70660000Y-22210000D03*
X72660000Y-24210000D03*
X72660000Y-22210000D03*
X74660000Y-24210000D03*
X74660000Y-22210000D03*
X76660000Y-24210000D03*
X76660000Y-22210000D03*
X78660000Y-24210000D03*
X78660000Y-22210000D03*
X80660000Y-24210000D03*
X80660000Y-22210000D03*
X82660000Y-24210000D03*
X82660000Y-22210000D03*
X84660000Y-24210000D03*
X84660000Y-22210000D03*
%TD*%
D27*
%TO.C,AIN1*%
X96330000Y-61670000D03*
D19*
X96330000Y-64210000D03*
X96330000Y-66750000D03*
%TD*%
D18*
%TO.C,iso5*%
X44900000Y-33180000D03*
D19*
X44900000Y-30640000D03*
X44900000Y-28100000D03*
X44900000Y-25560000D03*
%TD*%
D53*
%TO.C,pwrsel*%
X13495000Y-54150000D03*
D54*
X16035000Y-54150000D03*
X18575000Y-54150000D03*
%TD*%
D14*
%TO.C,ru2*%
X60100000Y-15770000D03*
X58100000Y-15770000D03*
%TD*%
D48*
%TO.C,C1*%
X10770000Y-70230000D03*
D49*
X12270000Y-70230000D03*
%TD*%
D31*
%TO.C,rms4*%
X81880000Y-37110000D03*
X83880000Y-37110000D03*
%TD*%
M02*
