M48
; DRILL file {KiCad 8.0.2-8.0.2-0~ubuntu22.04.1} date 2024-05-24T20:02:36+0330
; FORMAT={3:3/ absolute / metric / suppress trailing zeros}
; #@! TF.CreationDate,2024-05-24T20:02:36+03:30
; #@! TF.GenerationSoftware,Kicad,Pcbnew,8.0.2-8.0.2-0~ubuntu22.04.1
; #@! TF.FileFunction,Plated,1,2,PTH
FMAT,2
METRIC,LZ
; #@! TA.AperFunction,Plated,PTH,ComponentDrill
T1C0.200
; #@! TA.AperFunction,Plated,PTH,ViaDrill
T2C0.300
; #@! TA.AperFunction,Plated,PTH,ViaDrill
T3C0.400
; #@! TA.AperFunction,Plated,PTH,ViaDrill
T4C0.500
; #@! TA.AperFunction,Plated,PTH,ComponentDrill
T5C0.500
; #@! TA.AperFunction,Plated,PTH,ViaDrill
T6C0.600
; #@! TA.AperFunction,Plated,PTH,ComponentDrill
T7C0.600
; #@! TA.AperFunction,Plated,PTH,ViaDrill
T8C0.700
; #@! TA.AperFunction,Plated,PTH,ComponentDrill
T9C0.800
; #@! TA.AperFunction,Plated,PTH,ComponentDrill
T10C1.000
; #@! TA.AperFunction,Plated,PTH,ComponentDrill
T11C1.190
; #@! TA.AperFunction,Plated,PTH,ComponentDrill
T12C1.200
; #@! TA.AperFunction,Plated,PTH,ComponentDrill
T13C1.300
; #@! TA.AperFunction,Plated,PTH,ViaDrill
T14C3.000
%
G90
G05
T1
X06946Y-00806
X06946Y-00946
X07016Y-00736
X07016Y-00876
X07016Y-01016
X07086Y-00806
X07086Y-00946
X07156Y-00736
X07156Y-00876
X07156Y-01016
X07226Y-00806
X07226Y-00946
T2
X0753Y-00348
X088821Y-057161
X0899Y-05254
X09889Y-02923
T3
X00204Y-05
X00569Y-00136
X00653Y-03308
X00701Y-03183
X00724Y-00965
X00748Y-04187
X00765Y-02625
X00765Y-03498
X00766Y-00347
X00779Y-04688
X00784Y-02395
X00788Y-02144
X01105Y-00348
X01109Y-03314
X01134Y-02709
X01134Y-02807
X01183Y-05653
X01186Y-03199
X01244Y-03812
X01244Y-03926
X01247Y-04061
X01338Y-00287
X01382Y-0106
X014Y-01153
X014125Y-035075
X01591Y-05949
X01681Y-03823
X01682Y-03524
X0175Y-02905
X01843Y-02904
X01852Y-03822
X02215Y-02424
X02232Y-01754
X02329Y-04632
X02387Y-04134
X02389Y-04037
X0239Y-02998
X02409Y-00585
X02663Y-09592
X02737Y-0965
X02806Y-03194
X02812Y-09582
X02889Y-0349
X02889Y-0438
X030307Y-018398
X03169Y-02878
X0317Y-04364
X03222Y-0191
X03291Y-02251
X03436Y-04083
X03471Y-0018
X0348Y-00531
X03562Y-05485
X03624Y-00557
X03638Y-02357
X03786Y-01988
X03883Y-01332
X04122Y-01477
X04166Y-03224
X04284Y-03227
X0429Y-02693
X04348Y-02394
X04362Y-05946
X04483Y-06082
X04502Y-00769
X04512Y-01091
X04512Y-03556
X04681Y-05349
X04703Y-0115
X04704Y-01289
X0471Y-03549
X04724Y-001
X04729Y-0554
X04734Y-03314
X04808Y-00214
X04853Y-05539
X0507Y-01453
X05073Y-01805
X05182Y-05539
X05214Y-03355
X05318Y-03445
X05323Y-04711
X05344Y-02158
X05505Y-05417
X05594Y-00652
X05622Y-00752
X05777Y-04384
X05881Y-05451
X05885Y-0556
X05914Y-05054
X0604Y-05943
X0606Y-05764
X06181Y-0075
X06189Y-02919
X06207Y-05939
X06253Y-0556
X06322Y-023
X06358Y-05936
X06539Y-05929
X06636Y-00839
X06839Y-03506
X06896Y-03078
X07017Y-06297
X07038Y-00597
X07067Y-05055
X0708Y-04955
X07095Y-02635
X07172Y-05266
X07228Y-03164
X07265Y-04043
X07283Y-02673
X07372Y-00737
X07397Y-01052
X07446Y-00802
X0745Y-0413
X07523Y-00487
X07523Y-00585
X07692Y-01714
X07764Y-01358
X078Y-00419
X07801Y-01259
X07811Y-05288
X07862Y-00343
X07886Y-00622
X07922Y-05269
X07947Y-00506
X07957Y-01005
X07969Y-00823
X07993Y-039
X07998Y-03779
X08102Y-01996
X0822Y-05637
X08224Y-0545
X08265Y-01251
X0828Y-01351
X08399Y-02007
X08424Y-05026
X08446Y-0043
X0854Y-04015
X08544Y-03894
X0855Y-03771
X08589Y-05026
X08792Y-00279
X08919Y-04014
X0892Y-04153
X08921Y-03886
X09116Y-0169
X09182Y-0519
X09263Y-02013
X09266Y-01901
X09341Y-00348
X0957Y-01706
X09575Y-07823
X09608Y-07714
X09689Y-07786
X09731Y-0768
X09742Y-04292
X09806Y-04392
X09834Y-02065
X09875Y-01818
X099Y-00081
X09904Y-01923
X09906Y-01725
T4
X05721Y-01222
X06179Y-015
X06525Y-015
X066177Y-0125
X066977Y-01361
X06818Y-01368
X069391Y-013694
X07047Y-05451
X07059Y-01373
X07705Y-05455
X07902Y-01616
X07906Y-0136
X07906Y-01486
X08369Y-00866
X08374Y-00993
X08378Y-00739
X08378Y-0112
X0842Y-00612
X08635Y-01726
X08785Y-05426
X08796Y-00413
X08924Y-05426
X09032Y-04733
X09112Y-04814
T5
X06516Y-0387
X06516Y-04124
T6
X00175Y-09549
X00175Y-09795
X00265Y-08663
X00265Y-09229
X0027Y-08379
X0027Y-08945
X00284Y-0059
X00359Y-07503
X00382Y-05625
X00427Y-09797
X00429Y-00201
X00516Y-03188
X00683Y-08791
X00685Y-08977
X00685Y-0915
X00702Y-05649
X00704Y-09797
X00753Y-0436
X007706Y-015543
X00771Y-01796
X0081Y-03792
X01126Y-0114
X01144Y-00592
X01295Y-00593
X01482Y-0817
X01512Y-07368
X01577Y-04545
X01592Y-02367
X01631Y-07461
X016326Y-017834
X01654Y-08166
X01692Y-00316
X01734Y-04601
X01844Y-01543
X01889Y-00633
X01947Y-01838
X01998Y-015415
X02122Y-07632
X02137Y-05772
X0218Y-04537
X02186Y-0545
X02188Y-0155
X02203Y-00538
X02212Y-02208
X02401Y-04283
X026458Y-044802
X02733Y-08226
X02733Y-08657
X02733Y-09092
X02739Y-00658
X02877Y-06251
X02951Y-00825
X02989Y-07489
X02989Y-0792
X02989Y-08355
X02995Y-05824
X03161Y-01301
X03215Y-01678
X0324Y-00574
X03242Y-00717
X03268Y-06335
X03276Y-04268
X03424Y-09434
X03434Y-09574
X03456Y-05405
X0368Y-03376
X03712Y-04494
X03766Y-0401
X03814Y-00912
X03823Y-00092
X03929Y-04013
X03994Y-09402
X04007Y-08005
X04014Y-07821
X04024Y-07636
X04117Y-00092
X04138Y-09103
X04158Y-06883
X04188Y-00885
X04196Y-04018
X04228Y-06325
X04383Y-07659
X0443Y-00092
X044934Y-01946
X04551Y-05289
X04614Y-06728
X04767Y-04017
X04787Y-0182
X04849Y-0041
X04974Y-05249
X05022Y-08414
X05072Y-05837
X051Y-0165
X05127Y-0653
X0513Y-00591
X05143Y-06335
X05161Y-05368
X05229Y-09056
X05233Y-08768
X05248Y-00682
X0525Y-00528
X05361Y-05521
X054Y-09509
X05404Y-09647
X05458Y-0866
X05467Y-06426
X05484Y-07742
X05503Y-08117
X05515Y-05794
X05576Y-04011
X056Y-0045
X05613Y-0849
X05645Y-05559
X0565Y-0715
X057Y-024
X05736Y-03996
X05856Y-06364
X05869Y-06775
X05914Y-07717
X0605Y-028
X06136Y-00929
X06369Y-0629
X064653Y-031183
X0658Y-05044
X065925Y-055675
X06599Y-0656
X06649Y-00237
X06741Y-05437
X06785Y-09086
X06844Y-00235
X06874Y-04909
X06904Y-07803
X069274Y-00525
X06992Y-08177
X06999Y-07613
X07011Y-07012
X07053Y-08938
X07054Y-08745
X07054Y-0966
X0715Y-01645
X0717Y-03508
X07223Y-0336
X07256Y-0133
X0734Y-0795
X07364Y-08583
X07364Y-08726
X07378Y-07327
X07393Y-09008
X07398Y-01328
X074Y-04288
X07462Y-0768
X07543Y-06189
X07546Y-09012
X07583Y-03469
X07613Y-07527
X07618Y-05945
X07627Y-04173
X07699Y-09012
X07756Y-06505
X07757Y-02656
X07783Y-05945
X0782Y-06163
X07861Y-03382
X07898Y-06712
X0793Y-03241
X07959Y-03099
X07979Y-06161
X08Y-0505
X08056Y-09053
X082Y-0495
X082Y-06
X08208Y-08973
X08214Y-04322
X08235Y-05144
X08309Y-08287
X08316Y-0764
X08329Y-07966
X08371Y-04285
X084433Y-057203
X08476Y-02764
X08543Y-04238
X08626Y-08065
X08649Y-06287
X08689Y-07662
X0869Y-08798
X08774Y-07204
X08794Y-06285
X088838Y-017298
X08998Y-0505
X09004Y-08925
X09018Y-09268
X09169Y-04365
X09172Y-08996
X09173Y-03804
X09335Y-04368
X09353Y-0021
X09394Y-07189
X09448Y-06912
X09646Y-02471
X09732Y-09456
X09733Y-09306
X09756Y-02326
X09771Y-08163
X09847Y-08811
T7
X01077Y-07023
X01227Y-07023
X01804Y-07039
X01954Y-07039
T8
X005Y-085
T9
X0015Y-00209
X0015Y-00463
X0015Y-00717
X0015Y-00971
X00912Y-00209
X00912Y-00463
X00912Y-00717
X00912Y-00971
X03869Y-038133
X03869Y-045753
X04123Y-038133
X04123Y-045753
X04377Y-038133
X04377Y-045753
X04631Y-038133
X04631Y-045753
X05425Y-03
X05679Y-03
X06466Y-02221
X06466Y-02421
X06666Y-02221
X06666Y-02421
X06866Y-02221
X06866Y-02421
X07066Y-02221
X07066Y-02421
X07266Y-02221
X07266Y-02421
X07466Y-02221
X07466Y-02421
X07666Y-02221
X07666Y-02421
X07866Y-02221
X07866Y-02421
X08066Y-02221
X08066Y-02421
X08266Y-02221
X08266Y-02421
X08466Y-02221
X08466Y-02421
T10
X004157Y-077488
X004157Y-095488
X013495Y-05415
X01473Y-06238
X016035Y-05415
X01853Y-06238
X018575Y-05415
X02467Y-06785
X02655Y-055165
X02655Y-058965
X02847Y-06785
X037758Y-083488
X037758Y-089488
X03798Y-05543
X03798Y-05923
X056125Y-03482
X058665Y-03482
X06916Y-07259
X08116Y-07259
X08537Y-07262
X09737Y-07262
T11
X00368Y-06895
X00368Y-07149
X00525Y-0141
X00525Y-01664
X00525Y-01918
X00525Y-02172
X00525Y-02426
X00525Y-0268
X00525Y-02934
X02844Y-00338
X03098Y-00338
X03352Y-00338
X03606Y-00338
X0386Y-00338
X04114Y-00338
X04368Y-00338
X0449Y-02556
X0449Y-0281
X0449Y-03064
X0449Y-03318
X04622Y-00338
X05336Y-0233
X05336Y-02584
X0787Y-095
X08124Y-095
X08378Y-095
X08632Y-095
X08886Y-095
X0914Y-095
X096Y-00342
X096Y-00596
X096Y-0085
X096Y-01104
X096Y-01358
X09627Y-03295
X09627Y-03549
X09627Y-03803
X09627Y-04057
X09629Y-04744
X09629Y-04998
X09629Y-05252
X09629Y-05506
X09629Y-0576
X09633Y-06167
X09633Y-06421
X09633Y-06675
T12
X04448Y-07277
X04448Y-08622
X0648Y-07277
X0648Y-08622
T13
X00527Y-05358
X00527Y-05866
X00529Y-03541
X00529Y-04049
X00529Y-04557
X03824Y-06552
X03824Y-07052
X045615Y-09518
X050695Y-09518
X05741Y-09523
X06249Y-09523
X06757Y-09523
X06916Y-08479
X07521Y-07064
X08121Y-08484
X08537Y-08482
X09142Y-07067
X09742Y-08487
T14
X03485Y-00848
X04383Y-07958
X09768Y-09757
M30
